# xmcd
#
# Track frame offsets: 
#        150
#        8282
#        24774
#        53554
#        75870
#        99263
#        131428
#        162407
#        179628
#        189392
#        205158
#        216748
#        233771
#        247488
#        266460
#        277680
#        298202
#
# Disc length: 4280 seconds
#
# Revision: 0
# Processed by: cddbd v1.5.2PL0 Copyright (c) Steve Scherf et al.
# Submitted via: ExactAudioCopy v0.95b3
#
DISCID=e210b611
DTITLE=Bloomfield, Mike - Between The Hard Place and The Ground - Cruisi
DTITLE=n' For A Bruisin'
DYEAR=2008
DGENRE=Blues
TTITLE0=Lights Out
TTITLE1=Between The Hard Place and The Ground
TTITLE2=Big Chief From New Orleans
TTITLE3=Kidman Blues
TTITLE4=Orphan's Blues
TTITLE5=Juke Joint Blues
TTITLE6=Your Friends
TTITLE7=Cruisin' For A Bruisin'
TTITLE8=Linda Lou
TTITLE9=Papa-Mama-Rompah-Stompah
TTITLE10=Junker's Blues
TTITLE11=Midnight
TTITLE12=It'll Be Me
TTITLE13=Motorized Blues
TTITLE14=Mathilda
TTITLE15=Winter Moon
TTITLE16=Snowblind
EXTD=
EXTT0=
EXTT1=
EXTT2=
EXTT3=
EXTT4=
EXTT5=
EXTT6=
EXTT7=
EXTT8=
EXTT9=
EXTT10=
EXTT11=
EXTT12=
EXTT13=
EXTT14=
EXTT15=
EXTT16=
PLAYORDER=
